<?xml version="1.0" standalone="no"?>
<!DOCTYPE svg PUBLIC "-//W3C//DTD SVG 20010904//EN"
 "http://www.w3.org/TR/2001/REC-SVG-20010904/DTD/svg10.dtd">
<svg version="1.0" xmlns="http://www.w3.org/2000/svg"
 width="393.000000pt" height="440.000000pt" viewBox="0 0 393.000000 440.000000"
 preserveAspectRatio="xMidYMid meet">

<g transform="translate(0.000000,440.000000) scale(0.100000,-0.100000)"
fill="#0453c9" stroke="none">
<path d="M1865 4237 c-177 -59 -278 -212 -261 -395 l6 -67 -51 -34 c-29 -18
-106 -67 -173 -108 -67 -41 -157 -97 -201 -125 -44 -28 -129 -81 -190 -118
-60 -36 -120 -73 -132 -81 -21 -13 -26 -10 -73 39 -176 184 -488 130 -597
-103 -24 -53 -28 -72 -28 -155 0 -85 3 -101 29 -153 48 -93 136 -165 244 -197
l42 -13 0 -567 0 -568 -37 -7 c-93 -17 -195 -90 -235 -170 -82 -158 -55 -318
73 -443 142 -138 375 -131 510 15 21 24 42 43 45 43 7 0 542 -319 674 -402
l95 -60 0 -91 c0 -78 4 -100 26 -147 39 -81 99 -144 177 -182 61 -30 74 -33
162 -33 82 0 103 4 152 27 80 37 140 96 174 171 23 50 29 81 34 161 l5 99 387
232 387 232 51 -52 c28 -29 71 -62 95 -74 180 -90 403 -15 492 167 25 51 28
67 28 162 0 89 -4 112 -23 151 -50 102 -127 166 -232 195 l-60 17 0 563 0 563
42 12 c115 31 196 95 242 192 43 91 49 129 36 213 -14 88 -50 153 -122 219
-141 130 -356 123 -500 -17 l-50 -49 -92 59 c-50 32 -156 98 -236 145 -80 47
-212 128 -295 179 l-150 93 0 100 c0 93 -2 105 -32 166 -63 128 -176 200 -318
206 -48 2 -96 -3 -120 -10z m-146 -642 c18 -19 37 -35 42 -35 19 0 6 -30 -105
-229 -62 -113 -128 -234 -145 -268 -22 -45 -37 -63 -51 -63 -16 0 -362 53
-493 76 -66 12 -74 66 -14 102 66 40 396 241 492 300 55 33 129 81 165 106 36
25 67 45 70 45 3 1 20 -15 39 -34z m581 5 c27 -19 173 -108 513 -313 l217
-132 0 -35 0 -36 -172 -32 c-185 -34 -310 -52 -362 -52 -32 0 -34 3 -151 218
-65 119 -133 242 -149 273 l-30 57 32 33 c18 18 32 37 32 42 0 11 39 -1 70
-23z m-242 -200 c27 -52 90 -167 140 -255 l90 -160 -26 -6 c-36 -9 -450 -11
-544 -3 l-74 7 84 156 c47 86 111 204 144 262 l58 105 39 -5 c37 -6 41 -10 89
-101z m-933 -515 c99 -14 199 -28 223 -31 23 -3 42 -8 42 -11 0 -14 -105 -183
-113 -183 -5 0 -30 14 -56 32 -25 17 -105 71 -178 119 -135 91 -165 117 -122
106 13 -3 105 -17 204 -32z m1931 26 c-3 -5 -94 -66 -202 -136 -163 -106 -198
-125 -209 -114 -7 8 -33 52 -58 99 l-46 85 147 19 c81 9 192 26 247 35 125 23
127 23 121 12z m-673 -123 c13 -24 48 -85 77 -136 31 -54 49 -96 44 -100 -6
-4 -116 -74 -245 -156 -129 -82 -246 -158 -261 -169 l-26 -19 -34 25 c-33 25
-311 202 -440 281 -38 22 -68 46 -68 53 0 7 10 29 21 50 12 21 42 75 66 120
l44 82 287 -5 c225 -4 493 4 509 15 1 0 13 -18 26 -41z m-1468 -93 c44 -29
128 -83 186 -121 l106 -70 -44 -79 c-24 -44 -51 -95 -60 -112 -9 -18 -20 -33
-23 -33 -4 0 -27 37 -52 83 -25 45 -85 149 -132 232 -47 82 -86 153 -86 158 0
9 -2 11 105 -58z m2225 61 c0 -2 -15 -28 -32 -58 -18 -30 -80 -137 -138 -236
-58 -100 -109 -180 -114 -179 -9 3 -126 205 -126 217 0 3 80 56 178 117 97 62
186 119 197 127 19 15 35 20 35 12z m-2338 -327 c83 -140 158 -266 167 -280
14 -26 13 -30 -49 -140 -70 -125 -176 -307 -223 -382 -57 -91 -57 -87 -57 521
0 300 2 543 5 540 3 -3 73 -119 157 -259z m2500 -361 c-4 -375 -8 -478 -18
-482 -7 -3 -25 15 -42 42 -55 90 -251 427 -267 462 l-16 35 126 220 c69 121
145 248 168 281 l42 62 6 -72 c3 -39 3 -286 1 -548z m-1727 201 c124 -78 224
-146 223 -153 -5 -15 -424 -288 -444 -288 -7 0 -75 115 -150 253 l-25 45 82
142 c45 78 83 142 84 142 2 0 105 -63 230 -141z m1096 0 c43 -73 79 -139 79
-145 0 -9 -152 -288 -165 -302 -2 -2 -57 32 -122 75 -65 44 -158 105 -208 136
-49 31 -99 64 -109 72 -20 15 -20 15 0 30 10 9 48 33 84 55 36 22 128 80 205
129 77 49 144 88 149 87 5 -1 44 -63 87 -137z m-682 -263 c9 -7 86 -56 171
-108 225 -138 335 -208 337 -216 1 -4 -22 -50 -50 -102 l-53 -95 -124 5 c-174
7 -561 5 -646 -3 l-72 -7 -56 98 c-31 54 -56 103 -56 108 0 6 53 42 118 81
217 130 387 235 397 244 12 12 16 11 34 -5z m962 -206 c129 -221 172 -301 167
-306 -3 -2 -48 25 -100 60 -52 36 -132 88 -179 116 -125 77 -121 62 -55 181
31 56 56 107 56 113 1 18 36 -33 111 -164z m-1826 93 c21 -38 49 -87 62 -110
l24 -41 -73 -48 c-230 -151 -313 -202 -316 -195 -2 5 41 87 96 183 54 95 111
197 127 226 15 28 31 52 34 52 4 0 24 -30 46 -67z m208 -359 c21 -36 37 -68
34 -70 -2 -3 -49 -11 -103 -19 -55 -9 -137 -22 -183 -30 -47 -8 -86 -13 -88
-11 -2 2 38 28 89 59 51 30 118 73 148 95 30 22 57 41 60 41 3 0 22 -29 43
-65z m1451 -21 c145 -95 177 -117 160 -109 -6 3 -91 17 -190 31 -98 14 -180
28 -182 30 -6 6 64 135 73 135 2 0 64 -39 139 -87z m-547 -182 l63 -6 -53 -95
c-160 -286 -200 -356 -208 -365 -5 -5 -36 -10 -69 -11 l-60 -3 -24 42 c-198
348 -244 432 -240 439 6 9 497 9 591 -1z m-692 -166 c44 -80 110 -197 147
-259 l66 -114 -38 -41 -39 -41 -53 36 c-54 37 -391 242 -600 366 -98 58 -118
74 -118 94 0 17 7 25 23 28 63 13 465 70 517 74 9 1 45 -52 95 -143z m1160
115 c137 -20 291 -47 313 -55 7 -3 12 -15 10 -27 -2 -15 -31 -38 -98 -78 -52
-32 -212 -128 -355 -215 -143 -87 -273 -166 -290 -175 l-30 -19 -37 43 -37 43
58 99 c69 120 192 337 215 381 18 37 10 37 251 3z"/>
</g>
</svg>
